<svg xmlns="http://www.w3.org/2000/svg" version="1.1" xmlns:xlink="http://www.w3.org/1999/xlink" xmlns:svgjs="http://svgjs.dev/svgjs" width="192px" height="192px"><svg width="192px" height="192px" viewBox="0 0 192 192" version="1.1" xmlns="http://www.w3.org/2000/svg" xmlns:xlink="http://www.w3.org/1999/xlink" style="fill-rule:evenodd;clip-rule:evenodd;stroke-linejoin:round;stroke-miterlimit:2;"><path d="M84.702,125.303c-1.253,-0.252 -3.342,-0.673 -5.983,-1.206l0.002,-0.008c-9.973,-2.008 -29.338,-5.585 -39.833,-7.769c-1.436,-0.28 -2.373,-1.671 -2.093,-3.108c0.057,-0.294 0.161,-0.491 0.301,-0.615c0.134,-0.221 0.355,-0.494 0.666,-0.821l32.459,-35.147l-2.053,-8.015c-0.099,-0.337 -0.009,-1.912 0.511,-2.174c-1.514,-6.237 -2.536,-11.895 -6.778,-16.022c-0.433,-0.421 -0.664,-0.916 -0.864,-1.938c0.172,-0.008 -0.405,-0.018 -1.032,-0.109c-3.5,-0.508 -10.614,-5.592 -9.841,-7.54c0.591,-1.489 4.718,-0.877 14.552,0.02c4.113,0.375 11.671,1.012 12.703,1.484c1.048,0.479 0.208,2.54 -1.457,2.901c-1.811,0.394 -4.369,-0.6 -9.774,2.917c4.006,5.399 5.047,11.229 6.767,17.554c0,-0 -0.003,0.252 0.51,0.397l51.768,-5.913l0.121,-4.514l-1.026,-3.355l0.151,-1.431l0.964,-0.656c-0,-0 17.448,-2.258 19.361,-2.468l7.257,-0.779c3.388,-0.685 4.817,-1.725 4.807,-4.847c0.847,-1.48 5.555,-1.072 5.817,-0.162c-0.113,2.171 -0.814,4.023 -1.189,4.429c-0.246,1.333 0.67,3.969 0.736,5.974c0.09,2.73 0.843,6.808 1.79,8.355c-0.192,0.587 -0.673,0.568 -1.353,0.219c-0.6,-0.308 -1.897,-1.023 -2.135,-1.556c-0.328,-0.737 -0.351,-1.516 -0.436,-2.722c-0.152,-2.152 -0.103,-3.735 -0.41,-4.904c-0.445,-1.697 -0.82,-2.174 -1.169,-2.051c-0,-0 -1.028,0.553 -2.299,1.125c-0.941,0.423 -1.397,0.877 -1.271,2.073c0.019,0.183 0.054,0.364 0.039,0.544c-0.843,9.797 -10.68,12.678 -14.952,11.856c-0.064,-0.012 -0.008,-3.458 -0.008,-3.458c6.257,0.235 10.025,-3.87 10.678,-7.003c0.037,-0.176 0.059,-0.349 0.058,-0.516c-0.005,-0.886 -1.01,-1.874 -1.891,-2.568c-0.957,-0.754 -5.068,0.18 -6.099,0.431l0.001,0.009l-11.395,1.768l1.904,5.309l4.674,16.155l16.694,36.863c0.657,1.487 1.475,2.806 -0.011,3.462c-1.487,0.657 -3.926,0.33 -4.582,-1.156l-16.456,-32.119l-1.874,-2.235l-1.523,-0.32c-0.812,-0.053 -2.023,0.666 -3.523,1.942c-0.013,-0.018 -0.026,-0.036 -0.039,-0.054c-7.733,7.34 -24.205,27.813 -30.453,35.072c-1.093,1.27 -7.854,7.528 -7.854,7.528c-0.673,0.629 -2.178,1.084 -3.342,0.927c-0.195,-0.038 -0.33,-0.064 -0.293,-0.055Zm0.293,0.055c0.412,0.08 1.094,0.217 1.017,0.209c-0,-0 -0.389,-0.078 -1.099,-0.221c0.027,0.004 0.055,0.008 0.082,0.012Zm-13.271,-44.687c-0,0 -28.21,29.905 -28.287,29.995c-1.418,1.736 0.496,2.477 1.32,2.909c0.034,0.018 23.275,3.591 34.956,6.08l0.011,-0.049c0.037,0.008 0.075,0.016 0.112,0.024c0.272,-0.092 0.335,-0.172 0.488,-0.311c0.296,-0.271 0.418,-0.364 0.612,-0.949c-0,-0 0.085,-0.854 0.047,-1.755c-0.186,-4.421 -0.115,-10.638 -5.823,-24.182l-3.436,-11.762Zm53.448,-14.74c-0.665,-0.817 -4.091,-0.357 -4.091,-0.357l-46.144,5.241l12.321,45.195l37.144,-43.228c0,-0 0.868,-1.14 1.225,-2.271c0.31,-0.983 0.195,-3.781 -0.455,-4.58Z" style="fill:#ff6f42;"></path><path d="M85.131,124.115c-0.928,-0.597 -0.923,-1.966 -0.326,-2.895c0.597,-0.928 1.964,-1.358 2.892,-0.761l16.294,10.716c0.928,0.597 1.198,1.836 0.601,2.764c-0.597,0.929 -1.836,1.198 -2.764,0.601l-16.697,-10.425Z" style="fill:#ff6f42;"></path><path d="M39.038,75.37c21.165,0 38.349,17.184 38.349,38.35c-0,21.165 -17.184,38.349 -38.349,38.349c-21.166,-0 -38.35,-17.184 -38.35,-38.349c0,-21.166 17.184,-38.35 38.35,-38.35Zm-0,8c-16.751,0 -30.35,13.599 -30.35,30.35c0,16.75 13.599,30.349 30.35,30.349c16.75,-0 30.349,-13.599 30.349,-30.349c-0,-16.751 -13.599,-30.35 -30.349,-30.35Z" style="fill:#ff6f42;"></path><path d="M152.962,75.37c21.166,0 38.35,17.184 38.35,38.35c-0,21.165 -17.184,38.349 -38.35,38.349c-21.165,-0 -38.349,-17.184 -38.349,-38.349c0,-21.166 17.184,-38.35 38.349,-38.35Zm0,8c-16.75,0 -30.349,13.599 -30.349,30.35c0,16.75 13.599,30.349 30.349,30.349c16.751,-0 30.35,-13.599 30.35,-30.349c-0,-16.751 -13.599,-30.35 -30.35,-30.35Z" style="fill:#ff6f42;"></path></svg><style>@media (prefers-color-scheme: light) { :root { filter: none; } }
@media (prefers-color-scheme: dark) { :root { filter: none; } }
</style></svg>